<svg width="83" height="83" viewBox="0 0 83 83" fill="none" xmlns="http://www.w3.org/2000/svg">
<path fill-rule="evenodd" clip-rule="evenodd" d="M23.24 36.6582L28.2165 40.8082C34.566 46.0994 37.7442 48.745 41.4965 48.745C45.2557 48.745 48.4305 46.0994 54.7835 40.8047L59.7635 36.6547C60.9842 35.638 61.5964 35.1261 61.9215 34.431C62.25 33.7324 62.25 32.937 62.25 31.3427V24.2082C62.25 23.1015 62.2477 22.0663 62.2431 21.1026C62.2016 14.9779 61.9042 11.6371 59.7185 9.448C57.1835 6.9165 53.1096 6.9165 44.9583 6.9165H38.0417C29.8904 6.9165 25.813 6.9165 23.2815 9.448C21.0924 11.6371 20.7915 14.9779 20.75 21.1026V31.3427C20.75 32.9335 20.75 33.7324 21.0751 34.431C21.4036 35.1261 22.0192 35.638 23.24 36.6582ZM31.9896 20.7498C31.9896 20.0619 32.2629 19.4022 32.7493 18.9158C33.2357 18.4294 33.8954 18.1561 34.5833 18.1561H48.4167C49.1046 18.1561 49.7643 18.4294 50.2507 18.9158C50.7371 19.4022 51.0104 20.0619 51.0104 20.7498C51.0104 21.4377 50.7371 22.0975 50.2507 22.5839C49.7643 23.0703 49.1046 23.3436 48.4167 23.3436H34.5833C33.8954 23.3436 33.2357 23.0703 32.7493 22.5839C32.2629 22.0975 31.9896 21.4377 31.9896 20.7498ZM35.4479 31.1248C35.4479 30.4369 35.7212 29.7772 36.2076 29.2908C36.694 28.8044 37.3538 28.5311 38.0417 28.5311H44.9583C45.6462 28.5311 46.306 28.8044 46.7924 29.2908C47.2788 29.7772 47.5521 30.4369 47.5521 31.1248C47.5521 31.8127 47.2788 32.4725 46.7924 32.9589C46.306 33.4453 45.6462 33.7186 44.9583 33.7186H38.0417C37.3538 33.7186 36.694 33.4453 36.2076 32.9589C35.7212 32.4725 35.4479 31.8127 35.4479 31.1248Z" fill="#FF9B62"/>
<path opacity="0.5" d="M28.2169 40.8081L23.2369 36.6581C22.0161 35.6379 21.404 35.1295 21.0754 34.431C20.7469 33.7324 20.7503 32.937 20.7503 31.3461V21.1025C16.2545 21.5452 13.2285 22.5447 10.9702 24.803C6.91699 28.8527 6.91699 35.3785 6.91699 48.4234C6.91699 61.4613 6.91699 67.9837 10.9702 72.0334C15.0233 76.0831 21.5423 76.09 34.5837 76.09H48.417C61.4584 76.09 67.9808 76.09 72.0305 72.0369C76.0802 67.9837 76.0837 61.4648 76.0837 48.4234C76.0837 35.382 76.0837 28.8561 72.0305 24.803C69.7722 22.5447 66.7427 21.5452 62.2434 21.1025C62.248 22.0709 62.2503 23.1084 62.2503 24.215V31.3496C62.2503 32.9404 62.2503 33.7358 61.9218 34.4344C61.5967 35.133 60.988 35.6448 59.7603 36.6616L54.7803 40.8116C48.4308 46.1028 45.2561 48.7485 41.5003 48.7485C37.7446 48.7485 34.5664 46.0994 28.2169 40.8081Z" fill="#FF9B62"/>
</svg>
