<svg width="17" height="17" viewBox="0 0 17 17" fill="none" xmlns="http://www.w3.org/2000/svg">
<path d="M11.4822 5.66648H5.51801C5.28255 5.66614 5.05181 5.73249 4.85249 5.85785C4.65318 5.9832 4.49344 6.16244 4.39176 6.37482C4.27274 6.6268 4.2269 6.90715 4.25946 7.18392C4.29202 7.46069 4.40167 7.72275 4.57593 7.94023L7.55801 11.5527C7.67504 11.6878 7.81973 11.7961 7.98227 11.8703C8.14481 11.9445 8.32141 11.9829 8.50009 11.9829C8.67878 11.9829 8.85538 11.9445 9.01792 11.8703C9.18046 11.7961 9.32515 11.6878 9.44218 11.5527L12.4243 7.94023C12.5985 7.72275 12.7082 7.46069 12.7407 7.18392C12.7733 6.90715 12.7275 6.6268 12.6084 6.37482C12.5068 6.16244 12.347 5.9832 12.1477 5.85785C11.9484 5.73249 11.7176 5.66614 11.4822 5.66648Z" fill="#909090"/>
</svg>
