<svg width="35" height="36" viewBox="0 0 35 36" fill="none" xmlns="http://www.w3.org/2000/svg">
<path fill-rule="evenodd" clip-rule="evenodd" d="M17.5003 32.5834C10.6257 32.5834 7.18845 32.5834 5.05199 30.4469C2.91699 28.3134 2.91699 24.8746 2.91699 18C2.91699 11.1254 2.91699 7.68815 5.05199 5.55169C7.18991 3.41669 10.6257 3.41669 17.5003 3.41669C24.3749 3.41669 27.8122 3.41669 29.9472 5.55169C32.0837 7.6896 32.0837 11.1254 32.0837 18C32.0837 24.8746 32.0837 28.3119 29.9472 30.4469C27.8137 32.5834 24.3749 32.5834 17.5003 32.5834ZM17.5003 12.5313C17.7904 12.5313 18.0686 12.6465 18.2737 12.8516C18.4788 13.0567 18.5941 13.3349 18.5941 13.625V16.9063H21.8753C22.1654 16.9063 22.4436 17.0215 22.6487 17.2266C22.8538 17.4317 22.9691 17.7099 22.9691 18C22.9691 18.2901 22.8538 18.5683 22.6487 18.7734C22.4436 18.9785 22.1654 19.0938 21.8753 19.0938H18.5941V22.375C18.5941 22.6651 18.4788 22.9433 18.2737 23.1484C18.0686 23.3535 17.7904 23.4688 17.5003 23.4688C17.2102 23.4688 16.932 23.3535 16.7269 23.1484C16.5218 22.9433 16.4066 22.6651 16.4066 22.375V19.0938H13.1253C12.8352 19.0938 12.557 18.9785 12.3519 18.7734C12.1468 18.5683 12.0316 18.2901 12.0316 18C12.0316 17.7099 12.1468 17.4317 12.3519 17.2266C12.557 17.0215 12.8352 16.9063 13.1253 16.9063H16.4066V13.625C16.4066 13.3349 16.5218 13.0567 16.7269 12.8516C16.932 12.6465 17.2102 12.5313 17.5003 12.5313Z" fill="#909090"/>
</svg>
