<svg width="24" height="25" viewBox="0 0 24 25" fill="none" xmlns="http://www.w3.org/2000/svg">
<path d="M4 9.8685C4 8.18102 4 7.33818 4.4981 6.81387C4.9962 6.28955 5.7969 6.28955 7.4 6.28955H17.6C19.2031 6.28955 20.0038 6.28955 20.5019 6.81387C21 7.33818 21 8.18102 21 9.8685C21 10.2899 21 10.5011 20.8759 10.6326C20.7509 10.7632 20.5495 10.7632 20.15 10.7632H4.85C4.44965 10.7632 4.24905 10.7632 4.1241 10.6326C4 10.5011 4 10.289 4 9.8685ZM4 17.9211C4 19.6086 4 20.4514 4.4981 20.9758C4.9962 21.5001 5.7969 21.5001 7.4 21.5001H17.6C19.2031 21.5001 20.0038 21.5001 20.5019 20.9758C21 20.4514 21 19.6086 21 17.9211V13.4474C21 13.026 21 12.8149 20.8759 12.6833C20.7509 12.5527 20.5495 12.5527 20.15 12.5527H4.85C4.44965 12.5527 4.24905 12.5527 4.1241 12.6833C4 12.8149 4 13.0269 4 13.4474V17.9211Z" fill="#909090"/>
<path d="M8.25 4.5V7.18421M16.75 4.5V7.18421" stroke="#909090" stroke-width="2" stroke-linecap="round"/>
</svg>
