<svg width="24" height="25" viewBox="0 0 24 25" fill="none" xmlns="http://www.w3.org/2000/svg">
<path d="M2 6.25C2 6.05109 2.07902 5.86032 2.21967 5.71967C2.36032 5.57902 2.55109 5.5 2.75 5.5H18.25C18.4489 5.5 18.6397 5.57902 18.7803 5.71967C18.921 5.86032 19 6.05109 19 6.25C19 6.44891 18.921 6.63968 18.7803 6.78033C18.6397 6.92098 18.4489 7 18.25 7H2.75C2.55109 7 2.36032 6.92098 2.21967 6.78033C2.07902 6.63968 2 6.44891 2 6.25ZM2 18.25C2 18.0511 2.07902 17.8603 2.21967 17.7197C2.36032 17.579 2.55109 17.5 2.75 17.5H15.25C15.4489 17.5 15.6397 17.579 15.7803 17.7197C15.921 17.8603 16 18.0511 16 18.25C16 18.4489 15.921 18.6397 15.7803 18.7803C15.6397 18.921 15.4489 19 15.25 19H2.75C2.55109 19 2.36032 18.921 2.21967 18.7803C2.07902 18.6397 2 18.4489 2 18.25ZM2.75 11.5C2.55109 11.5 2.36032 11.579 2.21967 11.7197C2.07902 11.8603 2 12.0511 2 12.25C2 12.4489 2.07902 12.6397 2.21967 12.7803C2.36032 12.921 2.55109 13 2.75 13H21.25C21.4489 13 21.6397 12.921 21.7803 12.7803C21.921 12.6397 22 12.4489 22 12.25C22 12.0511 21.921 11.8603 21.7803 11.7197C21.6397 11.579 21.4489 11.5 21.25 11.5H2.75Z" fill="#FF9B62"/>
</svg>
