<svg width="24" height="25" viewBox="0 0 24 25" fill="none" xmlns="http://www.w3.org/2000/svg">
<path d="M21 6.04545V11.8409C21 11.9434 20.9593 12.0417 20.8868 12.1141C20.8144 12.1866 20.7161 12.2273 20.6136 12.2273H13.2727V4.88636C13.2727 4.78389 13.3134 4.68562 13.3859 4.61316C13.4583 4.54071 13.5566 4.5 13.6591 4.5H19.4545C19.8644 4.5 20.2575 4.66282 20.5473 4.95265C20.8372 5.24248 21 5.63557 21 6.04545ZM11.3409 4.5H5.54545C5.13557 4.5 4.74248 4.66282 4.45265 4.95265C4.16282 5.24248 4 5.63557 4 6.04545V11.8409C4 11.9434 4.04071 12.0417 4.11316 12.1141C4.18562 12.1866 4.28389 12.2273 4.38636 12.2273H11.7273V4.88636C11.7273 4.78389 11.6866 4.68562 11.6141 4.61316C11.5417 4.54071 11.4434 4.5 11.3409 4.5ZM20.6136 13.7727H13.2727V21.1136C13.2727 21.2161 13.3134 21.3144 13.3859 21.3868C13.4583 21.4593 13.5566 21.5 13.6591 21.5H19.4545C19.8644 21.5 20.2575 21.3372 20.5473 21.0473C20.8372 20.7575 21 20.3644 21 19.9545V14.1591C21 14.0566 20.9593 13.9583 20.8868 13.8859C20.8144 13.8134 20.7161 13.7727 20.6136 13.7727ZM4 14.1591V19.9545C4 20.3644 4.16282 20.7575 4.45265 21.0473C4.74248 21.3372 5.13557 21.5 5.54545 21.5H11.3409C11.4434 21.5 11.5417 21.4593 11.6141 21.3868C11.6866 21.3144 11.7273 21.2161 11.7273 21.1136V13.7727H4.38636C4.28389 13.7727 4.18562 13.8134 4.11316 13.8859C4.04071 13.9583 4 14.0566 4 14.1591Z" fill="#FF9B62"/>
</svg>
