<svg width="34" height="34" viewBox="0 0 34 34" fill="none" xmlns="http://www.w3.org/2000/svg">
<path fill-rule="evenodd" clip-rule="evenodd" d="M17.0001 3.66668C14.668 3.66625 12.3766 4.27749 10.3546 5.43939C8.33257 6.60129 6.65067 8.27321 5.47675 10.2883C4.30283 12.3033 3.67796 14.591 3.6645 16.9231C3.65105 19.2551 4.24947 21.5499 5.40006 23.5783C6.17774 22.5676 7.17744 21.7493 8.32187 21.1866C9.46629 20.624 10.7248 20.332 12.0001 20.3333H22.0001C23.2753 20.332 24.5338 20.624 25.6783 21.1866C26.8227 21.7493 27.8224 22.5676 28.6001 23.5783C29.7506 21.5499 30.3491 19.2551 30.3356 16.9231C30.3222 14.591 29.6973 12.3033 28.5234 10.2883C27.3494 8.27321 25.6675 6.60129 23.6455 5.43939C21.6235 4.27749 19.3321 3.66625 17.0001 3.66668ZM30.2384 27.1267C30.4473 26.8545 30.6473 26.5756 30.8384 26.29C32.6861 23.5445 33.671 20.3094 33.6667 17C33.6667 7.79501 26.2051 0.333344 17.0001 0.333344C7.79506 0.333344 0.333391 7.79501 0.333391 17C0.328139 20.6613 1.53346 24.2216 3.76172 27.1267L3.75339 27.1567L4.34506 27.845C5.9082 29.6725 7.84903 31.1394 10.0338 32.1444C12.2185 33.1495 14.5952 33.6688 17.0001 33.6667C17.3601 33.6667 17.7178 33.6556 18.0734 33.6333C21.0807 33.4437 23.9795 32.4383 26.4584 30.725C27.6439 29.9072 28.7184 28.9391 29.6551 27.845L30.2467 27.1567L30.2384 27.1267ZM17.0001 7.00001C15.674 7.00001 14.4022 7.52679 13.4645 8.46448C12.5268 9.40216 12.0001 10.6739 12.0001 12C12.0001 13.3261 12.5268 14.5979 13.4645 15.5355C14.4022 16.4732 15.674 17 17.0001 17C18.3261 17 19.5979 16.4732 20.5356 15.5355C21.4733 14.5979 22.0001 13.3261 22.0001 12C22.0001 10.6739 21.4733 9.40216 20.5356 8.46448C19.5979 7.52679 18.3261 7.00001 17.0001 7.00001Z" fill="#909090"/>
</svg>
