<svg width="24" height="25" viewBox="0 0 24 25" fill="none" xmlns="http://www.w3.org/2000/svg">
<g clip-path="url(#clip0_1205_427)">
<path d="M13.0562 6.19059L12.3188 4.69684C12.1969 4.43747 11.8156 4.42809 11.6812 4.69684L10.9438 6.19059L9.30937 6.42497C9.01875 6.46872 8.89375 6.82809 9.10938 7.04372L10.2969 8.19997L10.0156 9.82809C9.97188 10.1187 10.2719 10.3437 10.5406 10.2093L12.0063 9.43434L13.4625 10.1968C13.7312 10.3312 14.0344 10.1062 13.9875 9.81559L13.7063 8.18747L14.8938 7.04372C15.1062 6.83122 14.9844 6.47184 14.6938 6.42497L13.0594 6.19059H13.0562ZM10 12.5C9.44688 12.5 9 12.9468 9 13.5V19.5C9 20.0531 9.44688 20.5 10 20.5H14C14.5531 20.5 15 20.0531 15 19.5V13.5C15 12.9468 14.5531 12.5 14 12.5H10ZM3 14.5C2.44687 14.5 2 14.9468 2 15.5V19.5C2 20.0531 2.44687 20.5 3 20.5H7C7.55312 20.5 8 20.0531 8 19.5V15.5C8 14.9468 7.55312 14.5 7 14.5H3ZM16 17.5V19.5C16 20.0531 16.4469 20.5 17 20.5H21C21.5531 20.5 22 20.0531 22 19.5V17.5C22 16.9468 21.5531 16.5 21 16.5H17C16.4469 16.5 16 16.9468 16 17.5Z" fill="#909090"/>
</g>
<defs>
<clipPath id="clip0_1205_427">
<rect width="20" height="16" fill="white" transform="translate(2 4.5)"/>
</clipPath>
</defs>
</svg>
