<svg width="22" height="23" viewBox="0 0 22 23" fill="none" xmlns="http://www.w3.org/2000/svg">
<path d="M13.756 0.5H8.116L7.469 3.737C6.93331 3.97706 6.42392 4.27197 5.949 4.617L2.819 3.558L0 8.442L2.481 10.622C2.42108 11.2058 2.42108 11.7942 2.481 12.378L0 14.558L2.82 19.442L5.949 18.384C6.421 18.726 6.929 19.022 7.469 19.263L8.116 22.5H13.756L14.403 19.263C14.9387 19.0229 15.4481 18.728 15.923 18.383L19.053 19.442L21.873 14.558L19.391 12.378C19.4509 11.7942 19.4509 11.2058 19.391 10.622L21.872 8.442L19.052 3.558L15.924 4.616C15.449 4.27131 14.9397 3.97674 14.404 3.737L13.756 0.5ZM10.936 15.5C9.87513 15.5 8.85772 15.0786 8.10757 14.3284C7.35743 13.5783 6.936 12.5609 6.936 11.5C6.936 10.4391 7.35743 9.42172 8.10757 8.67157C8.85772 7.92143 9.87513 7.5 10.936 7.5C11.9969 7.5 13.0143 7.92143 13.7644 8.67157C14.5146 9.42172 14.936 10.4391 14.936 11.5C14.936 12.5609 14.5146 13.5783 13.7644 14.3284C13.0143 15.0786 11.9969 15.5 10.936 15.5Z" fill="#909090"/>
</svg>
