<svg width="32" height="32" viewBox="0 0 32 32" fill="none" xmlns="http://www.w3.org/2000/svg">
<path d="M12.0002 24H20.0002C20.3779 24 20.6946 23.8722 20.9502 23.6166C21.2057 23.3611 21.3335 23.0444 21.3335 22.6666C21.3335 22.2888 21.2057 21.9722 20.9502 21.7166C20.6946 21.4611 20.3779 21.3333 20.0002 21.3333H12.0002C11.6224 21.3333 11.3057 21.4611 11.0502 21.7166C10.7946 21.9722 10.6668 22.2888 10.6668 22.6666C10.6668 23.0444 10.7946 23.3611 11.0502 23.6166C11.3057 23.8722 11.6224 24 12.0002 24ZM12.0002 18.6666H20.0002C20.3779 18.6666 20.6946 18.5388 20.9502 18.2833C21.2057 18.0277 21.3335 17.7111 21.3335 17.3333C21.3335 16.9555 21.2057 16.6388 20.9502 16.3833C20.6946 16.1277 20.3779 16 20.0002 16H12.0002C11.6224 16 11.3057 16.1277 11.0502 16.3833C10.7946 16.6388 10.6668 16.9555 10.6668 17.3333C10.6668 17.7111 10.7946 18.0277 11.0502 18.2833C11.3057 18.5388 11.6224 18.6666 12.0002 18.6666ZM8.00016 29.3333C7.26683 29.3333 6.63905 29.0722 6.11683 28.55C5.59461 28.0277 5.3335 27.4 5.3335 26.6666V5.33329C5.3335 4.59996 5.59461 3.97218 6.11683 3.44996C6.63905 2.92774 7.26683 2.66663 8.00016 2.66663H17.5668C17.9224 2.66663 18.2613 2.73329 18.5835 2.86663C18.9057 2.99996 19.1891 3.18885 19.4335 3.43329L25.9002 9.89996C26.1446 10.1444 26.3335 10.4277 26.4668 10.75C26.6002 11.0722 26.6668 11.4111 26.6668 11.7666V26.6666C26.6668 27.4 26.4057 28.0277 25.8835 28.55C25.3613 29.0722 24.7335 29.3333 24.0002 29.3333H8.00016ZM17.3335 10.6666C17.3335 11.0444 17.4613 11.3611 17.7168 11.6166C17.9724 11.8722 18.2891 12 18.6668 12H24.0002L17.3335 5.33329V10.6666Z" fill="#909090"/>
</svg>
