<svg width="36" height="36" viewBox="0 0 36 36" fill="none" xmlns="http://www.w3.org/2000/svg">
<path fill-rule="evenodd" clip-rule="evenodd" d="M17.9998 32.5833C11.1253 32.5833 7.68796 32.5833 5.5515 30.4468C3.4165 28.3133 3.4165 24.8745 3.4165 18C3.4165 11.1254 3.4165 7.68808 5.5515 5.55163C7.68942 3.41663 11.1253 3.41663 17.9998 3.41663C24.8744 3.41663 28.3117 3.41663 30.4467 5.55163C32.5832 7.68954 32.5832 11.1254 32.5832 18C32.5832 24.8745 32.5832 28.3118 30.4467 30.4468C28.3132 32.5833 24.8744 32.5833 17.9998 32.5833ZM17.9998 12.5312C18.2899 12.5312 18.5681 12.6464 18.7732 12.8516C18.9784 13.0567 19.0936 13.3349 19.0936 13.625V16.9062H22.3748C22.6649 16.9062 22.9431 17.0214 23.1482 17.2266C23.3534 17.4317 23.4686 17.7099 23.4686 18C23.4686 18.29 23.3534 18.5682 23.1482 18.7734C22.9431 18.9785 22.6649 19.0937 22.3748 19.0937H19.0936V22.375C19.0936 22.665 18.9784 22.9432 18.7732 23.1484C18.5681 23.3535 18.2899 23.4687 17.9998 23.4687C17.7098 23.4687 17.4316 23.3535 17.2264 23.1484C17.0213 22.9432 16.9061 22.665 16.9061 22.375V19.0937H13.6248C13.3348 19.0937 13.0566 18.9785 12.8514 18.7734C12.6463 18.5682 12.5311 18.29 12.5311 18C12.5311 17.7099 12.6463 17.4317 12.8514 17.2266C13.0566 17.0214 13.3348 16.9062 13.6248 16.9062H16.9061V13.625C16.9061 13.3349 17.0213 13.0567 17.2264 12.8516C17.4316 12.6464 17.7098 12.5312 17.9998 12.5312Z" fill="#909090"/>
</svg>
