<svg width="24" height="25" viewBox="0 0 24 25" fill="none" xmlns="http://www.w3.org/2000/svg">
<path fill-rule="evenodd" clip-rule="evenodd" d="M12 22.5C13.3132 22.5 14.6136 22.2413 15.8268 21.7388C17.0401 21.2362 18.1425 20.4997 19.0711 19.5711C19.9997 18.6425 20.7362 17.5401 21.2388 16.3268C21.7413 15.1136 22 13.8132 22 12.5C22 11.1868 21.7413 9.88642 21.2388 8.67317C20.7362 7.45991 19.9997 6.35752 19.0711 5.42893C18.1425 4.50035 17.0401 3.76375 15.8268 3.2612C14.6136 2.75866 13.3132 2.5 12 2.5C9.34784 2.5 6.8043 3.55357 4.92893 5.42893C3.05357 7.3043 2 9.84784 2 12.5C2 15.1522 3.05357 17.6957 4.92893 19.5711C6.8043 21.4464 9.34784 22.5 12 22.5ZM11.7422 16.5444L17.2978 9.87778L15.5911 8.45556L10.8133 14.1878L8.34111 11.7144L6.77 13.2856L10.1033 16.6189L10.9633 17.4789L11.7422 16.5444Z" fill="#909090"/>
</svg>
