<svg width="24" height="25" viewBox="0 0 24 25" fill="none" xmlns="http://www.w3.org/2000/svg">
<g clip-path="url(#clip0_1244_1283)">
<path d="M13.0562 6.19065L12.3188 4.6969C12.1969 4.43753 11.8156 4.42815 11.6812 4.6969L10.9438 6.19065L9.30937 6.42503C9.01875 6.46878 8.89375 6.82815 9.10938 7.04378L10.2969 8.20003L10.0156 9.82815C9.97188 10.1188 10.2719 10.3438 10.5406 10.2094L12.0063 9.4344L13.4625 10.1969C13.7312 10.3313 14.0344 10.1063 13.9875 9.81565L13.7063 8.18753L14.8938 7.04378C15.1063 6.83128 14.9844 6.4719 14.6938 6.42503L13.0594 6.19065H13.0562ZM10 12.5C9.44687 12.5 9 12.9469 9 13.5V19.5C9 20.0532 9.44687 20.5 10 20.5H14C14.5531 20.5 15 20.0532 15 19.5V13.5C15 12.9469 14.5531 12.5 14 12.5H10ZM3 14.5C2.44687 14.5 2 14.9469 2 15.5V19.5C2 20.0532 2.44687 20.5 3 20.5H7C7.55313 20.5 8 20.0532 8 19.5V15.5C8 14.9469 7.55313 14.5 7 14.5H3ZM16 17.5V19.5C16 20.0532 16.4469 20.5 17 20.5H21C21.5531 20.5 22 20.0532 22 19.5V17.5C22 16.9469 21.5531 16.5 21 16.5H17C16.4469 16.5 16 16.9469 16 17.5Z" fill="#FF9B62"/>
</g>
<defs>
<clipPath id="clip0_1244_1283">
<rect width="20" height="16" fill="white" transform="translate(2 4.5)"/>
</clipPath>
</defs>
</svg>
