<svg width="24" height="25" viewBox="0 0 24 25" fill="none" xmlns="http://www.w3.org/2000/svg">
<path d="M4 9.86856C4 8.18109 4 7.33824 4.4981 6.81393C4.9962 6.28961 5.7969 6.28961 7.4 6.28961H17.6C19.2031 6.28961 20.0038 6.28961 20.5019 6.81393C21 7.33824 21 8.18109 21 9.86856C21 10.29 21 10.5011 20.8759 10.6327C20.751 10.7633 20.5495 10.7633 20.15 10.7633H4.85C4.44965 10.7633 4.24905 10.7633 4.1241 10.6327C4 10.5011 4 10.2891 4 9.86856ZM4 17.9212C4 19.6087 4 20.4515 4.4981 20.9758C4.9962 21.5001 5.7969 21.5001 7.4 21.5001H17.6C19.2031 21.5001 20.0038 21.5001 20.5019 20.9758C21 20.4515 21 19.6087 21 17.9212V13.4475C21 13.0261 21 12.8149 20.8759 12.6834C20.751 12.5528 20.5495 12.5528 20.15 12.5528H4.85C4.44965 12.5528 4.24905 12.5528 4.1241 12.6834C4 12.8149 4 13.027 4 13.4475V17.9212Z" fill="#FF9B62"/>
<path d="M8.25 4.5V7.18421M16.75 4.5V7.18421" stroke="#FF9B62" stroke-width="2" stroke-linecap="round"/>
</svg>
