<svg width="30" height="30" viewBox="0 0 30 30" fill="none" xmlns="http://www.w3.org/2000/svg">
<path opacity="0.6" d="M18.75 2.5H17.5C13.965 2.5 12.1962 2.5 11.0987 3.59875C10 4.69625 10 6.465 10 10V20C10 23.535 10 25.3038 11.0987 26.4013C12.1962 27.5 13.965 27.5 17.5 27.5H18.75C22.285 27.5 24.0538 27.5 25.1513 26.4013C26.25 25.3038 26.25 23.535 26.25 20V10C26.25 6.465 26.25 4.69625 25.1513 3.59875C24.0538 2.5 22.285 2.5 18.75 2.5Z" fill="#707070"/>
<path opacity="0.4" d="M10 10C10 8.0775 10 6.67875 10.1762 5.625H10C7.05375 5.625 5.58 5.625 4.665 6.54C3.75 7.455 3.75 8.92875 3.75 11.875V18.125C3.75 21.0712 3.75 22.5437 4.665 23.46C5.58 24.3762 7.05375 24.375 10 24.375H10.1762C10 23.3213 10 21.9225 10 20V10Z" fill="#707070"/>
<path fill-rule="evenodd" clip-rule="evenodd" d="M5.58753 14.3374C5.41197 14.5132 5.31335 14.7515 5.31335 14.9999C5.31335 15.2484 5.41197 15.4867 5.58753 15.6624L8.08753 18.1624C8.26525 18.328 8.50031 18.4182 8.74318 18.4139C8.98606 18.4096 9.21779 18.3112 9.38956 18.1395C9.56132 17.9677 9.65971 17.736 9.664 17.4931C9.66828 17.2502 9.57813 17.0152 9.41253 16.8374L8.51253 15.9374H17.5C17.7487 15.9374 17.9871 15.8387 18.1629 15.6629C18.3388 15.487 18.4375 15.2486 18.4375 14.9999C18.4375 14.7513 18.3388 14.5129 18.1629 14.337C17.9871 14.1612 17.7487 14.0624 17.5 14.0624H8.51253L9.41253 13.1624C9.50464 13.0766 9.57852 12.9731 9.62976 12.8581C9.681 12.7431 9.70855 12.619 9.71077 12.4931C9.71299 12.3672 9.68983 12.2422 9.64268 12.1255C9.59553 12.0087 9.52535 11.9027 9.43633 11.8137C9.3473 11.7246 9.24126 11.6544 9.12453 11.6073C9.00779 11.5601 8.88276 11.537 8.75688 11.5392C8.631 11.5414 8.50686 11.569 8.39186 11.6202C8.27686 11.6715 8.17336 11.7453 8.08753 11.8374L5.58753 14.3374Z" fill="#707070"/>
</svg>
