<svg width="106" height="93" viewBox="0 0 106 93" fill="none" xmlns="http://www.w3.org/2000/svg">
<path d="M49.0007 90.5C17.7692 86.9835 4.50035 61.5 2.50035 55C20.3174 22.4601 51.5872 25.2086 64.5 30.5C69.5 33 92.2601 42.0512 103.745 46.1551C105.009 56.0467 79.3499 93.9171 49.0007 90.5Z" fill="#123957"/>
<path d="M17.5 1.03613C16 11.0361 17.3 32.9361 34.5 40.5361C45.5001 44.0362 79.6 55.5362 88 71.5361H88.7266C79.4663 82.2535 65.7754 89.0361 50.5 89.0361C22.6096 89.0361 0 66.4265 0 38.5361C0 23.0886 6.93777 9.26329 17.8652 0L17.5 1.03613Z" fill="#5BA3D8" fill-opacity="0.5"/>
<path d="M28.9794 84.1752C29.0764 84.229 29.1743 84.2826 29.273 84.3362C36.2784 87.4521 68.1049 55.4208 74.2921 47.7504C79.9076 40.7887 93.9365 25.0957 100.711 22.1661C109.214 42.0783 101.828 61.3966 97.0722 68.5667C79.7231 98.177 44.4591 92.5743 29.273 84.3362C29.1697 84.2902 29.0718 84.2366 28.9794 84.1752Z" fill="#0A2235"/>
</svg>
