<svg width="24" height="24" viewBox="0 0 24 24" fill="none" xmlns="http://www.w3.org/2000/svg">
<path fill-rule="evenodd" clip-rule="evenodd" d="M9.25 4C9.25 3.27065 9.53973 2.57118 10.0555 2.05546C10.5712 1.53973 11.2707 1.25 12 1.25C12.7293 1.25 13.4288 1.53973 13.9445 2.05546C14.4603 2.57118 14.75 3.27065 14.75 4C14.75 4.72935 14.4603 5.42882 13.9445 5.94454C13.4288 6.46027 12.7293 6.75 12 6.75C11.2707 6.75 10.5712 6.46027 10.0555 5.94454C9.53973 5.42882 9.25 4.72935 9.25 4Z" fill="#909090"/>
<path d="M8.22316 11.574L6.04816 10.849C5.6755 10.7261 5.36422 10.4648 5.17851 10.1191C4.9928 9.77342 4.94683 9.36964 5.05007 8.99105C5.15331 8.61246 5.39789 8.28791 5.73338 8.08435C6.06887 7.88079 6.46968 7.81372 6.85316 7.89699L8.75116 8.30399L8.96116 8.34799C11.0367 8.77775 13.1798 8.76275 15.2492 8.30399L17.1462 7.89699C17.5299 7.81287 17.9313 7.87938 18.2674 8.08279C18.6035 8.2862 18.8486 8.61095 18.9521 8.98994C19.0556 9.36892 19.0095 9.77318 18.8234 10.1192C18.6373 10.4651 18.3254 10.7264 17.9522 10.849L15.7772 11.574C15.5142 11.662 15.3832 11.706 15.2842 11.767C15.1194 11.8686 14.9876 12.0158 14.9049 12.1909C14.8222 12.3659 14.7921 12.5612 14.8182 12.753C14.8342 12.868 14.8842 12.997 14.9832 13.256L16.2302 16.498C16.3643 16.8447 16.3624 17.2294 16.2247 17.5747C16.0871 17.9201 15.824 18.2006 15.4881 18.3601C15.1523 18.5195 14.7685 18.5461 14.4139 18.4344C14.0593 18.3227 13.76 18.0811 13.5762 17.758L12.0002 15L10.4242 17.757C10.2403 18.0801 9.94101 18.3217 9.5864 18.4334C9.23179 18.5451 8.84807 18.5185 8.51221 18.3591C8.17636 18.1996 7.91322 17.9191 7.7756 17.5737C7.63797 17.2284 7.63603 16.8437 7.77016 16.497L9.01716 13.256C9.11716 12.997 9.16616 12.868 9.18216 12.753C9.20826 12.5612 9.17812 12.3659 9.0954 12.1909C9.01268 12.0158 8.88094 11.8686 8.71616 11.767C8.61716 11.706 8.48616 11.662 8.22316 11.574Z" fill="#909090"/>
<path d="M12 22C17.523 22 22 19.985 22 17.5C22 15.778 19.85 14.282 16.694 13.525L17.63 15.959C18.379 17.907 16.942 19.999 14.855 19.999C14.331 19.9994 13.8162 19.8611 13.3629 19.5982C12.9096 19.3352 12.5339 18.9571 12.274 18.502L12 18.022L11.726 18.502C11.4664 18.957 11.0911 19.3351 10.6382 19.5982C10.1852 19.8613 9.67079 19.9999 9.147 20C7.06 20 5.622 17.907 6.371 15.959L7.307 13.525C4.149 14.282 2 15.778 2 17.5C2 19.985 6.477 22 12 22Z" fill="#909090"/>
</svg>
