<svg width="24" height="24" viewBox="0 0 24 24" fill="none" xmlns="http://www.w3.org/2000/svg">
<path d="M10.9259 2.35998C11.0956 2.46369 11.2172 2.63057 11.2639 2.82392C11.3106 3.01727 11.2786 3.22125 11.1749 3.39099C11.0985 3.51559 11.0663 3.66232 11.0835 3.80748C11.1007 3.95263 11.1664 4.08774 11.2699 4.19099L11.3679 4.28899C11.9559 4.87699 12.1729 5.74199 11.9319 6.53899C11.9059 6.63614 11.8607 6.72709 11.7989 6.80643C11.7371 6.88576 11.66 6.95185 11.5722 7.00078C11.4843 7.0497 11.3875 7.08046 11.2875 7.09122C11.1875 7.10198 11.0864 7.09252 10.9901 7.06341C10.8939 7.0343 10.8045 6.98613 10.7272 6.92176C10.6499 6.85739 10.5864 6.77815 10.5404 6.68873C10.4944 6.59932 10.4668 6.50156 10.4593 6.40128C10.4519 6.301 10.4646 6.20023 10.4969 6.10498C10.5364 5.97356 10.5396 5.83388 10.5062 5.70077C10.4727 5.56766 10.4039 5.4461 10.3069 5.34898L10.2089 5.25098C9.86762 4.90975 9.65109 4.46362 9.59413 3.98439C9.53717 3.50516 9.64311 3.0207 9.89488 2.60899C9.99858 2.43925 10.1655 2.31766 10.3588 2.27096C10.5522 2.22427 10.7561 2.25629 10.9259 2.35998ZM19.9739 7.04699C19.8359 7.09999 19.7139 7.22299 19.4679 7.46799C19.2219 7.71398 19.0999 7.83599 19.0459 7.97499C18.9836 8.13686 18.9836 8.31611 19.0459 8.47798C19.0999 8.61598 19.2219 8.73899 19.4679 8.98498C19.7129 9.22998 19.8359 9.35299 19.9739 9.40599C20.1361 9.46856 20.3157 9.46856 20.4779 9.40599C20.6159 9.35299 20.7379 9.22998 20.9839 8.98498C21.2289 8.73899 21.3519 8.61598 21.4049 8.47798C21.4672 8.31611 21.4672 8.13686 21.4049 7.97499C21.3519 7.83599 21.2299 7.71398 20.9849 7.46799C20.7389 7.22299 20.6159 7.09999 20.4779 7.04699C20.3157 6.98441 20.1361 6.98441 19.9739 7.04699ZM21.4079 12.56C21.2308 12.4821 21.035 12.4567 20.8439 12.4869C20.6528 12.517 20.4744 12.6014 20.3299 12.73C19.9354 13.0804 19.4406 13.2975 18.9157 13.3507C18.3908 13.4038 17.8625 13.2902 17.4059 13.026L17.1939 12.903C17.023 12.8028 16.8987 12.6391 16.8481 12.4477C16.7975 12.2562 16.8246 12.0525 16.9237 11.881C17.0227 11.7094 17.1856 11.5841 17.3767 11.5322C17.5678 11.4803 17.7717 11.5061 17.9439 11.604L18.1559 11.727C18.5339 11.945 19.0089 11.897 19.3349 11.607C19.6937 11.2884 20.1362 11.0794 20.6101 11.0046C21.084 10.9298 21.5695 10.9924 22.0089 11.185L22.2999 11.313C22.3931 11.3503 22.4779 11.406 22.5492 11.4767C22.6205 11.5475 22.6769 11.6318 22.715 11.7247C22.753 11.8177 22.7721 11.9173 22.771 12.0177C22.7698 12.1181 22.7485 12.2173 22.7083 12.3093C22.6681 12.4014 22.6099 12.4844 22.537 12.5535C22.4641 12.6226 22.3781 12.6764 22.284 12.7116C22.19 12.7468 22.0898 12.7628 21.9895 12.7585C21.8891 12.7543 21.7906 12.73 21.6999 12.687L21.4079 12.56Z" fill="#909090"/>
<path opacity="0.7" d="M13.5606 4.39601C13.7616 4.19601 13.8626 4.09501 13.9786 4.05801C14.0768 4.02689 14.1823 4.02689 14.2806 4.05801C14.3966 4.09501 14.4976 4.19501 14.6986 4.39601C14.8986 4.59801 14.9996 4.69801 15.0366 4.81401C15.0677 4.91227 15.0677 5.01775 15.0366 5.11601C14.9996 5.23301 14.8996 5.33301 14.6986 5.53401C14.4976 5.73501 14.3966 5.83601 14.2806 5.87301C14.1823 5.90414 14.0768 5.90414 13.9786 5.87301C13.8626 5.83601 13.7616 5.73501 13.5606 5.53401C13.3596 5.33401 13.2586 5.23301 13.2226 5.11601C13.1914 5.01775 13.1914 4.91227 13.2226 4.81401C13.2586 4.69801 13.3596 4.59801 13.5606 4.39601ZM19.0576 15.313C19.1074 15.2632 19.1666 15.2238 19.2316 15.1969C19.2967 15.17 19.3665 15.1561 19.4369 15.1562C19.5074 15.1562 19.5771 15.1701 19.6421 15.1971C19.7072 15.2241 19.7663 15.2637 19.8161 15.3135C19.8658 15.3634 19.9053 15.4225 19.9322 15.4876C19.9591 15.5527 19.973 15.6224 19.9729 15.6929C19.9729 15.7633 19.9589 15.833 19.9319 15.8981C19.9049 15.9631 19.8654 16.0222 19.8156 16.072C19.7149 16.1725 19.5785 16.2289 19.4362 16.2289C19.294 16.2288 19.1576 16.1722 19.0571 16.0715C18.9565 15.9709 18.9001 15.8344 18.9002 15.6922C18.9003 15.5499 18.9569 15.4135 19.0576 15.313Z" fill="#909090"/>
<path opacity="0.5" d="M6.92723 3.94002C6.97713 3.89025 7.03634 3.85079 7.10149 3.82391C7.16665 3.79702 7.23645 3.78323 7.30693 3.78333C7.37741 3.78342 7.44718 3.79739 7.51226 3.82445C7.57734 3.85151 7.63645 3.89112 7.68623 3.94102C7.736 3.99092 7.77545 4.05014 7.80234 4.11529C7.82922 4.18044 7.84301 4.25025 7.84292 4.32073C7.84283 4.39121 7.82885 4.46098 7.8018 4.52606C7.77474 4.59114 7.73513 4.65025 7.68523 4.70002C7.58444 4.80054 7.44786 4.8569 7.30552 4.85671C7.16318 4.85653 7.02674 4.7998 6.92623 4.69902C6.82571 4.59824 6.76934 4.46165 6.76953 4.31931C6.76972 4.17697 6.82644 4.04054 6.92723 3.94002ZM17.6892 4.72202C17.8841 4.76112 18.0555 4.87597 18.1657 5.04134C18.276 5.20672 18.3161 5.4091 18.2772 5.60402L18.1332 6.32402C18.0357 6.8107 17.8114 7.26302 17.4831 7.63526C17.1547 8.0075 16.7339 8.28649 16.2632 8.44402C16.0427 8.5167 15.8455 8.64667 15.6918 8.82063C15.538 8.99458 15.4333 9.20627 15.3882 9.43402L15.2442 10.154C15.2001 10.3439 15.0837 10.5092 14.9198 10.6147C14.7559 10.7203 14.5573 10.7579 14.3661 10.7195C14.175 10.6812 14.0063 10.5699 13.8958 10.4092C13.7853 10.2486 13.7417 10.0513 13.7742 9.85902L13.9182 9.13902C14.1162 8.14902 14.8302 7.33902 15.7882 7.02002C16.2362 6.87002 16.5702 6.49302 16.6622 6.03002L16.8062 5.31002C16.8256 5.21342 16.8638 5.12159 16.9186 5.03975C16.9735 4.95792 17.0439 4.8877 17.1259 4.83309C17.2079 4.77849 17.2999 4.74058 17.3965 4.72152C17.4932 4.70246 17.5926 4.70263 17.6892 4.72202Z" fill="#909090"/>
<path opacity="0.2" d="M17.5001 9.74204C17.5497 9.6917 17.6088 9.65168 17.674 9.62428C17.7392 9.59688 17.8091 9.58265 17.8798 9.5824C17.9505 9.58215 18.0206 9.5959 18.086 9.62284C18.1513 9.64978 18.2107 9.68939 18.2607 9.73939C18.3107 9.78938 18.3503 9.84878 18.3773 9.91414C18.4042 9.97951 18.4179 10.0496 18.4177 10.1203C18.4175 10.191 18.4032 10.2609 18.3758 10.3261C18.3484 10.3913 18.3084 10.4504 18.2581 10.5C18.1573 10.5994 18.0213 10.6549 17.8798 10.6544C17.7383 10.6539 17.6028 10.5975 17.5027 10.4974C17.4026 10.3973 17.3462 10.2618 17.3457 10.1203C17.3452 9.97876 17.4007 9.8428 17.5001 9.74204Z" fill="#909090"/>
<path opacity="0.5" d="M4.01229 15.762L5.70229 10.693C6.46829 8.39505 6.85129 7.24605 7.75729 7.03305C8.66329 6.81805 9.52029 7.67505 11.2323 9.38805L14.6123 12.767C16.3243 14.4801 17.1813 15.3361 16.9673 16.2421C16.7533 17.1481 15.6043 17.5321 13.3063 18.2971L8.23729 19.987C5.47229 20.909 4.08929 21.37 3.35929 20.64C2.62929 19.91 3.09029 18.5271 4.01229 15.762Z" fill="#909090"/>
<path d="M8.80013 7.50404L8.85013 7.25904C8.45813 7.02904 8.11113 6.94904 7.75713 7.03204C7.61526 7.06577 7.48073 7.12507 7.36013 7.20704L8.05613 7.35104C7.57813 7.25104 7.41513 7.21804 7.36013 7.20704L7.32513 7.23104L7.32013 7.25704C7.27066 7.4997 7.22465 7.74306 7.18213 7.98704C7.06603 8.63132 6.96234 9.27777 6.87113 9.92604C6.65613 11.459 6.45613 13.418 6.55913 14.983C6.62113 15.931 6.81913 17.106 6.99413 18.023C7.09058 18.5256 7.1946 19.0266 7.30613 19.526L7.32713 19.619L7.33313 19.644L7.33513 19.653L7.47213 20.241L8.23713 19.987L8.90113 19.766L8.79513 19.306L8.78913 19.285L8.76913 19.197L8.69713 18.867C8.61607 18.4929 8.5394 18.1179 8.46713 17.742C8.29413 16.835 8.11213 15.735 8.05613 14.885C7.96413 13.481 8.14413 11.65 8.35613 10.135C8.47823 9.27073 8.62295 8.40977 8.79013 7.55304L8.79813 7.51604L8.80013 7.50604V7.50404ZM13.0401 18.386L11.6161 18.861L11.5241 18.583L11.5231 18.58L11.5211 18.574L11.5141 18.552C11.4734 18.4295 11.4351 18.3061 11.3991 18.182C11.3251 17.935 11.2271 17.592 11.1291 17.199C10.9371 16.429 10.7271 15.407 10.7271 14.555C10.7271 13.703 10.9371 12.681 11.1291 11.912C11.243 11.4567 11.3714 11.0051 11.5141 10.558L11.5211 10.537L11.5231 10.53L12.2361 10.764L11.5241 10.528L11.7361 9.89104L12.9221 11.078L12.9181 11.092L12.8361 11.359C12.7671 11.589 12.6761 11.909 12.5841 12.275C12.3971 13.025 12.2271 13.897 12.2271 14.555C12.2271 15.213 12.3971 16.086 12.5841 16.835C12.6898 17.2563 12.8085 17.6742 12.9401 18.088L12.9461 18.105L12.9471 18.109L13.0401 18.386Z" fill="#909090"/>
</svg>
