<svg width="101" height="101" viewBox="0 0 101 101" fill="none" xmlns="http://www.w3.org/2000/svg">
<path fill-rule="evenodd" clip-rule="evenodd" d="M5.42493 11.6276C5.6891 10.8336 6.25774 10.177 7.00585 9.80218C7.75396 9.42734 8.6203 9.36491 9.41443 9.62861L10.5296 10.0031L10.698 10.0579C13.3324 10.9374 15.5586 11.6781 17.3135 12.4945C19.1736 13.3614 20.7896 14.4303 22.0142 16.1347C23.2388 17.8306 23.748 19.7034 23.9795 21.7444C24.1983 23.6634 24.1983 26.0116 24.1983 28.7891V39.9791C24.1983 46.0181 24.2067 50.2348 24.6318 53.4121C25.0484 56.501 25.8101 58.1339 26.9716 59.2996C28.1373 60.4653 29.7743 61.2228 32.8633 61.6394C36.0406 62.0644 40.2531 62.0728 46.292 62.0728H75.7504C76.1649 62.0728 76.5753 62.1545 76.9582 62.3131C77.3412 62.4717 77.6891 62.7042 77.9822 62.9973C78.2753 63.2904 78.5078 63.6383 78.6664 64.0213C78.825 64.4042 78.9066 64.8146 78.9066 65.2291C78.9066 65.6436 78.825 66.054 78.6664 66.4369C78.5078 66.8199 78.2753 67.1678 77.9822 67.4609C77.6891 67.754 77.3412 67.9865 76.9582 68.1451C76.5753 68.3037 76.1649 68.3853 75.7504 68.3853H46.0606C40.3078 68.3853 35.666 68.3853 32.0174 67.893C28.2299 67.388 25.04 66.2938 22.5066 63.7646C19.9773 61.2312 18.8874 58.0413 18.3782 54.2538C17.8858 50.6051 17.8858 45.9634 17.8858 40.2106V28.9659C17.8858 25.9654 17.8858 23.979 17.7091 22.4598C17.5407 21.0206 17.2588 20.3262 16.8926 19.8254C16.5307 19.3204 15.9626 18.828 14.6496 18.2178C13.2608 17.5739 11.3797 16.9385 8.53488 15.9874L7.41968 15.6171C6.62648 15.352 5.97089 14.783 5.59689 14.035C5.22288 13.287 5.16103 12.4211 5.42493 11.6276Z" fill="#FF9B62"/>
<path opacity="0.5" d="M24.1768 25.25C24.1936 26.3442 24.2006 27.5239 24.1978 28.7892V39.9792C24.1978 46.0181 24.2062 50.2349 24.6313 53.4122C24.6958 53.8751 24.7659 54.3071 24.8417 54.7083H67.43C71.4658 54.7083 73.4816 54.7083 75.0639 53.6647C76.6463 52.621 77.4416 50.7693 79.0282 47.0576L80.8378 42.8492C84.2423 34.8955 85.9425 30.927 84.074 28.0864C82.2055 25.2458 77.8793 25.25 69.227 25.25H24.1768Z" fill="#FF9B62"/>
<path d="M31.5625 75.75C33.2367 75.75 34.8423 76.4151 36.0261 77.5989C37.2099 78.7827 37.875 80.3883 37.875 82.0625C37.875 83.7367 37.2099 85.3423 36.0261 86.5261C34.8423 87.7099 33.2367 88.375 31.5625 88.375C29.8883 88.375 28.2827 87.7099 27.0989 86.5261C25.9151 85.3423 25.25 83.7367 25.25 82.0625C25.25 80.3883 25.9151 78.7827 27.0989 77.5989C28.2827 76.4151 29.8883 75.75 31.5625 75.75ZM75.75 82.0625C75.75 80.3883 75.0849 78.7827 73.9011 77.5989C72.7173 76.4151 71.1117 75.75 69.4375 75.75C67.7633 75.75 66.1577 76.4151 64.9739 77.5989C63.7901 78.7827 63.125 80.3883 63.125 82.0625C63.125 83.7367 63.7901 85.3423 64.9739 86.5261C66.1577 87.7099 67.7633 88.375 69.4375 88.375C71.1117 88.375 72.7173 87.7099 73.9011 86.5261C75.0849 85.3423 75.75 83.7367 75.75 82.0625Z" fill="#FF9B62"/>
</svg>
