<svg width="40" height="40" viewBox="0 0 40 40" fill="none" xmlns="http://www.w3.org/2000/svg">
<path fill-rule="evenodd" clip-rule="evenodd" d="M20.0001 6.66671C17.668 6.66628 15.3766 7.27752 13.3546 8.43942C11.3326 9.60132 9.65067 11.2732 8.47675 13.2883C7.30283 15.3034 6.67796 17.5911 6.6645 19.9231C6.65105 22.2551 7.24947 24.5499 8.40006 26.5784C9.17774 25.5677 10.1774 24.7493 11.3219 24.1867C12.4663 23.624 13.7248 23.332 15.0001 23.3334H25.0001C26.2753 23.332 27.5338 23.624 28.6783 24.1867C29.8227 24.7493 30.8224 25.5677 31.6001 26.5784C32.7506 24.5499 33.3491 22.2551 33.3356 19.9231C33.3222 17.5911 32.6973 15.3034 31.5234 13.2883C30.3494 11.2732 28.6675 9.60132 26.6455 8.43942C24.6235 7.27752 22.3321 6.66628 20.0001 6.66671ZM33.2384 30.1267C33.4473 29.8545 33.6473 29.5756 33.8384 29.29C35.6861 26.5445 36.671 23.3094 36.6667 20C36.6667 10.795 29.2051 3.33337 20.0001 3.33337C10.7951 3.33337 3.33339 10.795 3.33339 20C3.32814 23.6613 4.53346 27.2216 6.76172 30.1267L6.75339 30.1567L7.34506 30.845C8.9082 32.6726 10.849 34.1394 13.0338 35.1444C15.2185 36.1495 17.5952 36.6688 20.0001 36.6667C20.3601 36.6667 20.7178 36.6556 21.0734 36.6334C24.0807 36.4437 26.9795 35.4383 29.4584 33.725C30.6439 32.9072 31.7184 31.9391 32.6551 30.845L33.2467 30.1567L33.2384 30.1267ZM20.0001 10C18.674 10 17.4022 10.5268 16.4645 11.4645C15.5268 12.4022 15.0001 13.674 15.0001 15C15.0001 16.3261 15.5268 17.5979 16.4645 18.5356C17.4022 19.4733 18.674 20 20.0001 20C21.3261 20 22.5979 19.4733 23.5356 18.5356C24.4733 17.5979 25.0001 16.3261 25.0001 15C25.0001 13.674 24.4733 12.4022 23.5356 11.4645C22.5979 10.5268 21.3261 10 20.0001 10Z" fill="#909090"/>
</svg>
