<svg width="24" height="25" viewBox="0 0 24 25" fill="none" xmlns="http://www.w3.org/2000/svg">
<path opacity="0.5" fill-rule="evenodd" clip-rule="evenodd" d="M22 8.793C22 12.269 19.17 15.087 15.68 15.087C15.044 15.087 13.594 14.941 12.889 14.355L12.007 15.233C11.488 15.75 11.628 15.902 11.859 16.152C11.955 16.257 12.067 16.378 12.154 16.551C12.154 16.551 12.889 17.575 12.154 18.6C11.713 19.185 10.478 20.004 9.06796 18.6L8.77396 18.892C8.77396 18.892 9.65496 19.917 8.92096 20.942C8.47996 21.527 7.30396 22.112 6.27496 21.088L5.24696 22.112C4.54096 22.815 3.67896 22.405 3.33696 22.112L2.45396 21.234C1.63096 20.414 2.11096 19.526 2.45396 19.184L10.096 11.574C10.096 11.574 9.36096 10.404 9.36096 8.794C9.36096 5.318 12.191 2.5 15.681 2.5C19.171 2.5 22 5.318 22 8.793Z" fill="#909090"/>
<path d="M17.8851 8.794C17.8837 9.3773 17.6508 9.9362 17.2375 10.3478C16.8242 10.7594 16.2644 10.9901 15.6811 10.989C15.0977 10.9901 14.5379 10.7594 14.1246 10.3478C13.7113 9.9362 13.4784 9.3773 13.4771 8.794C13.4776 8.50509 13.535 8.21911 13.646 7.9524C13.7571 7.68568 13.9196 7.44345 14.1242 7.23953C14.3289 7.03561 14.5717 6.874 14.8388 6.76393C15.106 6.65385 15.3921 6.59747 15.6811 6.598C15.97 6.59747 16.2561 6.65385 16.5233 6.76393C16.7904 6.874 17.0332 7.03561 17.2379 7.23953C17.4425 7.44345 17.605 7.68568 17.7161 7.9524C17.8271 8.21911 17.8845 8.50509 17.8851 8.794Z" fill="#909090"/>
</svg>
