<svg width="20" height="20" viewBox="0 0 20 20" fill="none" xmlns="http://www.w3.org/2000/svg">
<path d="M9.92049 0.859999C11.7205 0.859999 13.3272 1.23333 14.7405 1.98C16.1538 2.72667 17.2538 3.76667 18.0405 5.1C18.8272 6.43333 19.2205 7.94667 19.2205 9.64C19.2205 10.7733 19.0738 11.7533 18.7805 12.58C18.4872 13.4067 18.0738 14.0333 17.5405 14.46C17.0205 14.8867 16.4138 15.1 15.7205 15.1C15.1072 15.1 14.6005 14.9533 14.2005 14.66C13.8005 14.3533 13.5405 13.9267 13.4205 13.38L13.3605 12.8C12.9872 13.5333 12.4605 14.1 11.7805 14.5C11.1005 14.9 10.3138 15.1 9.42049 15.1C8.52716 15.1 7.71382 14.8867 6.98049 14.46C6.24716 14.02 5.66716 13.4067 5.24049 12.62C4.81382 11.8333 4.60049 10.94 4.60049 9.94C4.60049 8.95333 4.80715 8.07333 5.22049 7.3C5.64716 6.51333 6.22716 5.90667 6.96049 5.48C7.69382 5.04 8.51382 4.82 9.42049 4.82C10.2472 4.82 10.9872 5 11.6405 5.36C12.2938 5.72 12.8072 6.23333 13.1805 6.9V4.94H14.8805V12.26C14.8805 12.7533 14.9805 13.1133 15.1805 13.34C15.3938 13.5667 15.6805 13.68 16.0405 13.68C16.6138 13.68 17.0672 13.3333 17.4005 12.64C17.7472 11.9467 17.9205 10.9533 17.9205 9.66C17.9205 8.18 17.5805 6.86667 16.9005 5.72C16.2338 4.57333 15.2938 3.68667 14.0805 3.06C12.8672 2.42 11.4805 2.1 9.92049 2.1C8.34715 2.1 6.94716 2.43333 5.72049 3.1C4.50716 3.75333 3.56049 4.67333 2.88049 5.86C2.21382 7.04667 1.88049 8.39333 1.88049 9.9C1.88049 11.42 2.21382 12.78 2.88049 13.98C3.54716 15.1667 4.48049 16.0867 5.68049 16.74C6.89382 17.4067 8.28049 17.74 9.84049 17.74C10.4938 17.74 11.1605 17.6667 11.8405 17.52C12.5205 17.3733 13.1405 17.1533 13.7005 16.86L14.1405 18.08C13.5538 18.3867 12.8738 18.62 12.1005 18.78C11.3272 18.94 10.5738 19.02 9.84049 19.02C8.01382 19.02 6.38716 18.6267 4.96049 17.84C3.53382 17.0667 2.42715 15.9867 1.64049 14.6C0.853822 13.2133 0.460488 11.6467 0.460488 9.9C0.460488 8.15333 0.853822 6.6 1.64049 5.24C2.44049 3.86667 3.55382 2.79333 4.98049 2.02C6.42049 1.24667 8.06716 0.859999 9.92049 0.859999ZM9.76049 13.62C10.4138 13.62 11.0005 13.4667 11.5205 13.16C12.0538 12.8533 12.4672 12.4267 12.7605 11.88C13.0538 11.32 13.2005 10.6733 13.2005 9.94C13.2005 9.22 13.0538 8.58667 12.7605 8.04C12.4672 7.48 12.0538 7.05333 11.5205 6.76C11.0005 6.45333 10.4138 6.3 9.76049 6.3C9.09382 6.3 8.50049 6.45333 7.98049 6.76C7.46049 7.05333 7.05382 7.48 6.76049 8.04C6.46716 8.58667 6.32049 9.22 6.32049 9.94C6.32049 10.6733 6.46716 11.32 6.76049 11.88C7.05382 12.4267 7.46049 12.8533 7.98049 13.16C8.50049 13.4667 9.09382 13.62 9.76049 13.62Z" fill="#707070"/>
</svg>
