<svg width="17" height="17" viewBox="0 0 17 17" fill="none" xmlns="http://www.w3.org/2000/svg">
<path fill-rule="evenodd" clip-rule="evenodd" d="M8.33333 16.8333C4.405 16.8333 2.44083 16.8333 1.22 15.6125C0 14.3933 0 12.4283 0 8.49999C0 4.57166 0 2.60749 1.22 1.38666C2.44167 0.166656 4.405 0.166656 8.33333 0.166656C12.2617 0.166656 14.2258 0.166656 15.4458 1.38666C16.6667 2.60832 16.6667 4.57166 16.6667 8.49999C16.6667 12.4283 16.6667 14.3925 15.4458 15.6125C14.2267 16.8333 12.2617 16.8333 8.33333 16.8333ZM11.6917 5.97499C11.8087 6.09218 11.8744 6.25103 11.8744 6.41666C11.8744 6.58228 11.8087 6.74113 11.6917 6.85832L7.525 11.025C7.40781 11.142 7.24896 11.2078 7.08333 11.2078C6.91771 11.2078 6.75885 11.142 6.64167 11.025L4.975 9.35832C4.91359 9.3011 4.86434 9.2321 4.83018 9.15544C4.79602 9.07877 4.77765 8.99601 4.77617 8.91209C4.77469 8.82817 4.79013 8.74481 4.82156 8.66699C4.853 8.58917 4.89979 8.51847 4.95913 8.45912C5.01848 8.39978 5.08918 8.35299 5.167 8.32155C5.24483 8.29012 5.32818 8.27468 5.4121 8.27616C5.49602 8.27764 5.57878 8.29601 5.65545 8.33017C5.73211 8.36433 5.80111 8.41358 5.85833 8.47499L7.08333 9.69999L10.8083 5.97499C10.9255 5.85795 11.0844 5.79221 11.25 5.79221C11.4156 5.79221 11.5745 5.85795 11.6917 5.97499Z" fill="#B2B2B2"/>
</svg>
