<svg width="89" height="89" viewBox="0 0 89 89" fill="none" xmlns="http://www.w3.org/2000/svg">
<path fill-rule="evenodd" clip-rule="evenodd" d="M45 80C49.5963 80 54.1475 79.0947 58.3939 77.3358C62.6403 75.5769 66.4987 72.9988 69.7487 69.7487C72.9988 66.4987 75.5769 62.6403 77.3358 58.3939C79.0947 54.1475 80 49.5963 80 45C80 40.4037 79.0947 35.8525 77.3358 31.6061C75.5769 27.3597 72.9988 23.5013 69.7487 20.2513C66.4987 17.0012 62.6403 14.4231 58.3939 12.6642C54.1475 10.9053 49.5963 10 45 10C35.7174 10 26.815 13.6875 20.2513 20.2513C13.6875 26.815 10 35.7174 10 45C10 54.2826 13.6875 63.185 20.2513 69.7487C26.815 76.3125 35.7174 80 45 80ZM44.0978 59.1556L63.5422 35.8222L57.5689 30.8444L40.8467 50.9072L32.1939 42.2506L26.695 47.7494L38.3617 59.4161L41.3717 62.4261L44.0978 59.1556Z" fill="#FF9B62"/>
</svg>
