<svg width="91" height="91" viewBox="0 0 91 91" fill="none" xmlns="http://www.w3.org/2000/svg">
<path d="M23 68L14.375 76.625C13.1875 77.8125 11.8281 78.0781 10.2969 77.4219C8.76562 76.7656 8 75.5938 8 73.9062V15.5C8 13.4375 8.73437 11.6719 10.2031 10.2031C11.6719 8.73437 13.4375 8 15.5 8H75.5C77.5625 8 79.3281 8.73437 80.7969 10.2031C82.2656 11.6719 83 13.4375 83 15.5V60.5C83 62.5625 82.2656 64.3281 80.7969 65.7969C79.3281 67.2656 77.5625 68 75.5 68H23ZM45.5 43.25L52.625 50.375C53.3125 51.0625 54.1875 51.4062 55.25 51.4062C56.3125 51.4062 57.1875 51.0625 57.875 50.375C58.5625 49.6875 58.9062 48.8125 58.9062 47.75C58.9062 46.6875 58.5625 45.8125 57.875 45.125L50.75 38L57.875 30.875C58.5625 30.1875 58.9062 29.3125 58.9062 28.25C58.9062 27.1875 58.5625 26.3125 57.875 25.625C57.1875 24.9375 56.3125 24.5938 55.25 24.5938C54.1875 24.5938 53.3125 24.9375 52.625 25.625L45.5 32.75L38.375 25.625C37.6875 24.9375 36.8125 24.5938 35.75 24.5938C34.6875 24.5938 33.8125 24.9375 33.125 25.625C32.4375 26.3125 32.0938 27.1875 32.0938 28.25C32.0938 29.3125 32.4375 30.1875 33.125 30.875L40.25 38L33.125 45.125C32.4375 45.8125 32.0938 46.6875 32.0938 47.75C32.0938 48.8125 32.4375 49.6875 33.125 50.375C33.8125 51.0625 34.6875 51.4062 35.75 51.4062C36.8125 51.4062 37.6875 51.0625 38.375 50.375L45.5 43.25Z" fill="#FF9B62"/>
</svg>
